<?xml version="1.0" encoding="UTF-8" standalone="no"?>
<svg
   xmlns:dc="http://purl.org/dc/elements/1.1/"
   xmlns:cc="http://creativecommons.org/ns#"
   xmlns:rdf="http://www.w3.org/1999/02/22-rdf-syntax-ns#"
   xmlns:svg="http://www.w3.org/2000/svg"
   xmlns="http://www.w3.org/2000/svg"
   xmlns:sodipodi="http://sodipodi.sourceforge.net/DTD/sodipodi-0.dtd"
   xmlns:inkscape="http://www.inkscape.org/namespaces/inkscape"
   id="a751cec9-7d0e-4c8a-a2d9-3a6c65a20454"
   data-name="Layer 1"
   width="799"
   height="687.11761"
   viewBox="0 0 799 687.11762"
   version="1.1"
   sodipodi:docname="undraw_newspaper_k72w.svg"
   inkscape:version="0.92.4 (5da689c313, 2019-01-14)">
  <metadata
     id="metadata83">
    <rdf:RDF>
      <cc:Work
         rdf:about="">
        <dc:format>image/svg+xml</dc:format>
        <dc:type
           rdf:resource="http://purl.org/dc/dcmitype/StillImage" />
        <dc:title>newspaper</dc:title>
      </cc:Work>
    </rdf:RDF>
  </metadata>
  <defs
     id="defs81" />
  <sodipodi:namedview
     pagecolor="#ffffff"
     bordercolor="#666666"
     borderopacity="1"
     objecttolerance="10"
     gridtolerance="10"
     guidetolerance="10"
     inkscape:pageopacity="0"
     inkscape:pageshadow="2"
     inkscape:window-width="1920"
     inkscape:window-height="1017"
     id="namedview79"
     showgrid="false"
     inkscape:zoom="0.87980807"
     inkscape:cx="-0.12994912"
     inkscape:cy="306.92952"
     inkscape:window-x="-8"
     inkscape:window-y="-8"
     inkscape:window-maximized="1"
     inkscape:current-layer="a751cec9-7d0e-4c8a-a2d9-3a6c65a20454"
     fit-margin-top="20"
     fit-margin-left="0"
     fit-margin-right="0"
     fit-margin-bottom="0" />
  <title
     id="title2">newspaper</title>
  <path
     d="M 649,650.19962 H 164 l 0.21874,-51.42174 c 0.55348,-130.11522 104.40844,-237.32948 234.506,-239.54236 q 2.10824,-0.0359 4.22346,-0.0359 h 4e-4 a 245.33553,245.33553 0 0 1 85.75247,15.40589 c 92.054,34.28252 153.84089,121.38358 157.951,219.52807 z"
     id="path4"
     style="fill:#5770be;fill-opacity:1"
     inkscape:connector-curvature="0" />
  <rect
     y="650.19958"
     width="799"
     height="2"
     id="rect6"
     x="0"
     style="fill:#2f2e41" />
  <polygon
     points="441.028,598.33 491.54,598.33 474.055,390.451 404.115,363.252 398.287,400.165 419.657,415.708 "
     id="polygon8"
     style="fill:#383838;fill-opacity:1"
     transform="translate(0,20.041869)" />
  <path
     d="m 308.9184,361.92359 c 0,0 -5.82836,66.05475 17.48508,67.99754 23.31344,1.94279 112.68163,-19.42787 112.68163,-19.42787 l 42.74131,151.53736 64.112,-33.02737 c 0,0 -38.85573,-170.96523 -62.16917,-180.67916 -23.31344,-9.71393 -101.02491,-29.1418 -101.02491,-29.1418 l -56.34082,9.71393 z"
     id="path10"
     style="fill:#383838;fill-opacity:1"
     inkscape:connector-curvature="0" />
  <path
     d="m 448.79905,614.48586 c 0,0 -11.65673,44.68409 -3.88558,48.56967 a 140.53483,140.53483 0 0 1 13.59951,7.77114 v -7.77114 c 0,0 9.71393,9.71393 9.71393,17.48508 0,7.77115 52.45524,9.71393 52.45524,0 0,-9.71393 -1.94278,-21.37066 -11.65672,-27.199 -9.71394,-5.82834 -21.37065,-38.85573 -21.37065,-38.85573 z"
     id="path12"
     style="fill:#383838;fill-opacity:1"
     inkscape:connector-curvature="0" />
  <polygon
     points="522.625,575.016 555.652,538.103 530.396,497.305 505.14,514.79 509.025,551.703 "
     id="polygon14"
     style="fill:#383838;fill-opacity:1"
     transform="translate(0,20.041869)" />
  <path
     d="m 536.22445,571.74455 c 0,0 7.15372,-24.46025 14.26219,-21.94406 7.10847,2.51619 34.30747,27.77242 34.30747,27.77242 l 19.42789,11.65672 c 0,0 38.85573,3.88558 27.199,15.5423 -11.65673,11.65672 -54.398,27.199 -73.82589,19.42786 -19.42789,-7.77114 -23.31344,-9.71393 -23.31344,-9.71393 l -5.82836,3.88557 -23.31344,-5.82836 3.88557,-40.79852 c 0,0 5.82835,17.48508 27.19901,0 z"
     id="path16"
     style="fill:#383838;fill-opacity:1"
     inkscape:connector-curvature="0" />
  <circle
     cx="374.97314"
     cy="74.391159"
     r="44.68409"
     id="circle18"
     style="fill:#a26859;fill-opacity:1" />
  <path
     d="m 346.80274,100.61875 c 0,0 3.88558,40.79852 -7.77114,40.79852 -11.65672,0 1.94278,50.51248 33.0274,50.51248 31.08462,0 42.74131,-60.22639 42.74131,-60.22639 0,0 -21.37066,-7.77115 -17.48508,-33.027371 3.88558,-25.25622 -50.51249,1.942761 -50.51249,1.942761 z"
     id="path20"
     style="fill:#a26859;fill-opacity:1"
     inkscape:connector-curvature="0" />
  <path
     d="m 343.70687,138.30514 -16.332,6.99774 -44.32477,18.75279 a 8.99955,8.99955 0 0 0 -5.43656,9.29441 l 16.734,148.74639 c 0,0 -17.48508,36.91294 9.71394,38.85573 l 3.88552,13.59955 31.08459,-36.913 116.5672,-3.88557 1.94279,-188.45031 -53.3357,-21.07612 c 0,0 -7.25407,40.108 -60.49901,14.07839 z"
     id="path22"
     style="fill:#484d7a;fill-opacity:1"
     inkscape:connector-curvature="0" />
  <path
     d="m 289.49054,169.58775 -7.17945,-2.05127 a 5.919,5.919 0 0 0 -7.47123,4.7594 L 255.788,291.80322 a 41.5016,41.5016 0 0 0 4.05469,25.91676 c 5.8867,11.14588 18.11259,21.25444 43.24739,9.23345 L 320.57516,200.6723 Z"
     id="path24"
     style="fill:#484d7a;fill-opacity:1"
     inkscape:connector-curvature="0" />
  <path
     d="m 435.19954,142.38875 23.31344,3.88557 64.112,89.36819 5.82832,15.54224 36.913,-11.65672 c 0,0 -1.94279,17.48508 17.48508,15.5423 0,0 -23.31344,64.112 -71.88311,44.68409 -48.56967,-19.42791 -64.112,-77.71147 -64.112,-77.71147 z"
     id="path26"
     style="fill:#484d7a;fill-opacity:1"
     inkscape:connector-curvature="0" />
  <polygon
     points="371.088,137.889 411.886,172.859 462.399,161.203 374.973,126.232 "
     id="polygon28"
     style="fill:#cecece;fill-opacity:1"
     transform="translate(0,20.041869)" />
  <path
     d="m 348.06969,77.239749 c 1.65033,-0.44064 1.89277,-2.63175 1.94808,-4.339 0.29622,-9.14249 5.80151,-18.52371 14.553,-21.18523 a 24.46655,24.46655 0 0 1 10.313,-0.5675 39.06274,39.06274 0 0 1 13.96661,4.65951 c 2.27932,1.28145 4.51509,2.82482 7.10047,3.21626 1.70747,0.25852 9.10059,2.40806 10.80081,2.71057 3.7381,0.66508 7.2121,4.00959 10.79913,2.765 3.43173,-1.19068 4.19139,-5.634 4.27434,-9.26547 0.189,-8.27324 -6.09157,-19.72372 -11.62353,-25.87838 -4.198,-4.67054 -10.519,-6.82653 -16.698,-7.9476 a 111.168,111.168 0 0 0 -21.83787,-1.32849 c -9.88858,0.17636 -20.05125,0.93961 -28.968,5.21828 -8.91675,4.27867 -16.40657,12.79425 -16.834,22.67516 -0.089,2.05828 0.1233,4.12515 -0.0498,6.17808 -0.42218,5.00809 -3.08153,9.5316 -4.329,14.40017 a 26.35017,26.35017 0 0 0 3.67977,21.05747 c 3.30926,4.87005 16.54275,9.29112 16.35142,15.176001 2.39183,-2.478 -3.24866,-4.972421 -0.85683,-7.450411 a 5.89248,5.89248 0 0 0 1.75244,-7.19911 l -2.53985,-9.90672 c -0.46505,-1.814 -0.92235,-3.77752 -0.21992,-5.51327 2.72285,-6.72807 5.66607,3.25937 8.41769,2.52468 z"
     id="path30"
     style="fill:#383838;fill-opacity:1"
     inkscape:connector-curvature="0" />
  <polygon
     points="477.941,332.168 561.481,262.227 613.936,104.862 528.453,167.031 371.088,137.889 334.175,281.655 "
     id="polygon32"
     style="fill:#f0f0f0;fill-opacity:1"
     transform="translate(0,20.041869)" />
  <rect
     x="-73.222252"
     y="409.88974"
     width="1.9424599"
     height="144.66914"
     transform="rotate(-75.21727)"
     id="rect34"
     style="fill:#e6e6e6" />
  <rect
     x="-83.606125"
     y="408.61133"
     width="1.9424599"
     height="144.66914"
     transform="rotate(-75.21727)"
     id="rect36"
     style="fill:#e6e6e6" />
  <rect
     x="-93.494202"
     y="409.21143"
     width="1.9424599"
     height="144.66914"
     transform="rotate(-75.21727)"
     id="rect38"
     style="fill:#e6e6e6" />
  <rect
     x="-103.38234"
     y="409.81149"
     width="1.9424599"
     height="144.66914"
     transform="rotate(-75.21727)"
     id="rect40"
     style="fill:#e6e6e6" />
  <rect
     x="-113.27042"
     y="410.41156"
     width="1.9424599"
     height="144.66914"
     transform="rotate(-75.21727)"
     id="rect42"
     style="fill:#e6e6e6" />
  <rect
     x="-123.15856"
     y="411.01163"
     width="1.9424599"
     height="144.66914"
     transform="rotate(-75.21727)"
     id="rect44"
     style="fill:#e6e6e6" />
  <rect
     x="-133.04671"
     y="411.61166"
     width="1.9424599"
     height="144.66914"
     transform="rotate(-75.21727)"
     id="rect46"
     style="fill:#e6e6e6" />
  <rect
     x="-142.93477"
     y="412.21176"
     width="1.9424599"
     height="144.66914"
     transform="rotate(-75.21727)"
     id="rect48"
     style="fill:#e6e6e6" />
  <rect
     x="-152.82292"
     y="412.81183"
     width="1.9424599"
     height="144.66914"
     transform="rotate(-75.21727)"
     id="rect50"
     style="fill:#e6e6e6" />
  <path
     d="m 311.85043,263.68401 c 0,0 43.69485,-26.09876 63.12272,-8.61368 19.42787,17.48508 -56.34081,42.7413 -56.34081,42.7413 z"
     id="path52"
     style="fill:#a26859;fill-opacity:1"
     inkscape:connector-curvature="0" />
  <path
     d="m 264.23431,276.44098 56.34081,-21.37065 c 0,0 -9.71393,36.91294 9.71394,38.85573 L 303.09,326.95343 c 0,0 -54.398,0 -38.85569,-50.51245 z"
     id="path54"
     style="fill:#484d7a;fill-opacity:1"
     inkscape:connector-curvature="0" />
  <polygon
     points="469.562,319.365 394.801,294.169 412.494,255.602 487.255,280.799 "
     id="polygon56"
     style="fill:#cecece;fill-opacity:1"
     transform="translate(0,20.041869)" />
  <polygon
     points="585.766,183.545 527.482,226.286 544.967,173.831 601.308,131.089 "
     id="polygon58"
     style="fill:#cecece;fill-opacity:1"
     transform="translate(0,20.041869)" />
  <rect
     x="251.89615"
     y="523.67786"
     width="70.718498"
     height="1.9432"
     transform="rotate(-37.18317)"
     id="rect60"
     style="fill:#e6e6e6" />
  <rect
     x="235.88481"
     y="538.35571"
     width="70.718498"
     height="1.9432"
     transform="rotate(-37.18317)"
     id="rect62"
     style="fill:#e6e6e6" />
  <path
     d="m 577.023,257.01311 c 0,0 48.56966,-29.1418 17.48508,-40.79852 -31.08458,-11.65672 -31.08459,33.02738 -31.08459,33.02738 0,0 -1.94282,9.71393 13.59951,7.77114 z"
     id="path64"
     style="fill:#a26859;fill-opacity:1"
     inkscape:connector-curvature="0" />
  <polygon
     points="320.575,239.063 296.29,239.885 292.405,171.888 290.462,247.657 "
     id="polygon66"
     style="opacity:0.1"
     transform="translate(0,20.041869)" />
  <path
     d="m 80.40863,615.93408 c 6.07317,22.45006 26.87512,36.35395 26.87512,36.35395 0,0 10.95541,-22.49485 4.88225,-44.94491 -6.07316,-22.45006 -26.87512,-36.354 -26.87512,-36.354 0,0 -10.95541,22.4949 -4.88225,44.94496 z"
     id="path68"
     style="fill:#91ae4f;fill-opacity:1"
     inkscape:connector-curvature="0" />
  <path
     d="m 89.33272,611.10932 c 16.66484,16.22256 18.70033,41.1604 18.70033,41.1604 0,0 -24.98356,-1.36411 -41.64841,-17.58667 -16.66485,-16.22256 -18.70033,-41.1604 -18.70033,-41.1604 0,0 24.98356,1.3641 41.64841,17.58667 z"
     id="path70"
     style="fill:#383838;fill-opacity:1"
     inkscape:connector-curvature="0" />
</svg>
