<?xml version="1.0" encoding="UTF-8" standalone="no"?>
<!-- Created with Inkscape (http://www.inkscape.org/) -->
<svg
   xmlns:dc="http://purl.org/dc/elements/1.1/"
   xmlns:cc="http://creativecommons.org/ns#"
   xmlns:rdf="http://www.w3.org/1999/02/22-rdf-syntax-ns#"
   xmlns:svg="http://www.w3.org/2000/svg"
   xmlns="http://www.w3.org/2000/svg"
   xmlns:sodipodi="http://sodipodi.sourceforge.net/DTD/sodipodi-0.dtd"
   xmlns:inkscape="http://www.inkscape.org/namespaces/inkscape"
   width="213"
   height="85"
   id="svg2460"
   sodipodi:version="0.32"
   inkscape:version="0.46"
   version="1.0"
   sodipodi:docname="Conseil supérieur de l'audiovisuel.svg"
   inkscape:output_extension="org.inkscape.output.svg.inkscape">
  <defs
     id="defs2462">
    <inkscape:perspective
       sodipodi:type="inkscape:persp3d"
       inkscape:vp_x="0 : 526.18109 : 1"
       inkscape:vp_y="0 : 1000 : 0"
       inkscape:vp_z="744.09448 : 526.18109 : 1"
       inkscape:persp3d-origin="372.04724 : 350.78739 : 1"
       id="perspective2468" />
  </defs>
  <sodipodi:namedview
     id="base"
     pagecolor="#ffffff"
     bordercolor="#666666"
     borderopacity="1.0"
     inkscape:pageopacity="0.0"
     inkscape:pageshadow="2"
     inkscape:zoom="4.3568075"
     inkscape:cx="106.5"
     inkscape:cy="42.5"
     inkscape:document-units="px"
     inkscape:current-layer="layer1"
     showgrid="false"
     inkscape:window-width="1024"
     inkscape:window-height="712"
     inkscape:window-x="-4"
     inkscape:window-y="-4" />
  <metadata
     id="metadata2465">
    <rdf:RDF>
      <cc:Work
         rdf:about="">
        <dc:format>image/svg+xml</dc:format>
        <dc:type
           rdf:resource="http://purl.org/dc/dcmitype/StillImage" />
      </cc:Work>
    </rdf:RDF>
  </metadata>
  <g
     inkscape:label="Calque 1"
     inkscape:groupmode="layer"
     id="layer1"
     transform="translate(-193.63495,-347.10297)">
    <path
       d="M 259.4812,363.95461 L 261.40251,365.2671 C 262.62122,363.01711 264.85626,359.28206 272.09,358.7046 C 272.09,358.7046 273.66868,358.34456 278.46496,359.36088 C 277.24625,358.04831 276.12121,356.92336 276.12121,356.92336 C 272.79251,356.53213 266.85622,356.3446 262.76245,360.15708 C 261.54372,361.18835 260.84,362.07961 260.23118,362.87581 C 259.87869,363.33709 259.4812,363.95461 259.4812,363.95461 M 259.4812,382.04834 L 261.30875,380.87585 C 262.85621,384.1571 267.73118,390.28213 277.6062,387.53211 L 278.46496,387.29835 C 277.29248,388.59458 276.12121,389.87586 276.12121,389.87586 C 273.10622,390.15708 265.95001,391.75086 259.9025,382.93838 L 259.4812,382.04834"
       style="fill:#005891;fill-opacity:1;fill-rule:nonzero;stroke:none"
       id="path67" />
    <path
       d="M 276.12121,350.03211 L 278.41751,348.62586 C 269.91868,345.15708 246.9812,348.15711 244.85626,372.03208 C 245.04371,381.90711 247.72751,388.85085 256.29371,395.03211 C 263.48121,400.21956 274.29245,399.4696 275.91872,399.09461 C 277.53127,398.72336 278.48121,398.2196 278.48121,398.2196 C 277.66754,397.84461 276.16745,396.9696 276.16745,396.9696 C 272.41745,398.03206 257.79372,398.5321 250.7312,386.15706 C 248.66868,382.40706 243.10623,370.46958 252.6062,358.09463 C 255.66871,354.84458 259.04372,350.46958 269.35622,349.53208 C 274.10491,349.34463 276.12121,350.03211 276.12121,350.03211 M 307.9187,351.09458 L 310.10498,349.96963 C 297.72995,343.5321 287.79251,349.40711 285.1062,353.28208 C 281.54372,358.09463 281.25748,364.70961 284.1687,370.0946 C 286.66748,374.71961 295.66741,378.71963 298.97995,381.59461 C 299.79248,382.46963 301.8013,387.19459 295.91872,388.5321 C 294.54254,388.8446 290.16876,388.78211 286.60621,386.46956 C 285.1062,385.65711 284.4812,385.28213 284.4812,385.28213 C 284.41741,388.15711 284.4812,396.78206 284.4812,396.78206 C 287.10618,398.5321 294.85626,401.3446 303.10501,398.59458 C 306.16745,397.21961 307.98004,396.78206 311.23001,392.46963 L 309.23126,391.40708 C 306.79368,394.21958 304.1687,398.03206 294.29368,397.71956 C 292.23121,397.5946 289.47998,396.90711 287.73118,396.21963 L 286.85501,395.78208 L 286.85501,388.8446 C 288.91754,389.7821 295.16876,392.2821 299.72991,389.28206 C 299.72991,389.28206 302.98004,387.09456 302.16751,382.71956 C 301.47995,380.65711 301.04248,380.34461 298.60504,378.59458 C 296.16868,376.84463 290.64499,374.18586 288.16741,371.46956 C 286.23122,369.34463 283.31001,365.8821 284.98001,358.96956 C 286.79368,351.46956 293.5437,349.21958 297.48001,349.21958 C 303.47991,349.21958 302.16751,349.21958 305.72998,350.21956 C 306.9812,350.65711 307.9187,351.09458 307.9187,351.09458"
       style="fill:#005891;fill-opacity:1;fill-rule:nonzero;stroke:none"
       id="path69" />
    <path
       d="M 310.16876,362.03208 L 307.9187,358.03206 C 304.47998,356.09458 297.16751,353.59458 293.97995,359.59456 C 292.98126,362.34458 294.04372,365.46958 297.41868,367.9071 C 300.79376,370.34461 305.97991,372.53211 308.35495,375.59463 C 310.7312,378.65706 310.29251,378.65706 310.29251,378.65706 L 312.54241,378.03206 C 311.23001,375.59463 310.10498,373.40713 304.85504,370.21956 C 299.60495,367.03208 297.04376,365.28213 296.29371,363.46961 C 295.54368,361.6571 296.04248,358.71963 298.22998,358.2196 C 300.4187,357.71956 301.61125,357.25081 304.47998,358.5321 C 307.41745,359.84458 308.16741,360.46958 308.60504,360.78208 C 309.04372,361.09458 310.16876,362.03208 310.16876,362.03208 M 329.91745,382.96958 L 340.85495,382.96958 L 336.0437,360.53206 L 335.1062,368.09463 L 337.9187,381.0321 L 332.60498,381.0321 L 329.91745,382.96958 M 328.5437,388.65706 L 342.04376,388.65706 L 344.23004,396.90711 L 354.10491,396.90711 L 357.10495,398.71963 L 342.41868,398.71963 L 340.16876,390.65711 L 330.4187,390.65711 L 328.5437,388.65706"
       style="fill:#005891;fill-opacity:1;fill-rule:nonzero;stroke:none"
       id="path71" />
    <path
       d="M 328.29254,398.96956 L 326.48118,396.9696 L 317.22991,396.90711 L 330.29251,349.84458 L 340.60501,349.84458 L 342.35504,347.9071 L 328.35618,347.9071 L 314.16748,399.03213 L 328.29254,398.96956 M 262.54371,431.90711 L 263.79371,430.0946 L 335.54245,430.0946 L 336.91741,431.90711 L 262.54371,431.90711 M 200.15121,412.78586 C 199.25003,412.26089 198.47748,412.0246 197.63,412.0246 C 195.95749,412.0246 194.71252,413.21586 194.71252,414.82459 C 194.71252,416.46583 195.91499,417.60338 197.67373,417.60338 C 198.49999,417.60338 199.40002,417.31338 200.22629,416.77711 L 200.22629,417.92335 C 199.50745,418.29711 198.72498,418.56338 197.57751,418.56338 C 194.83124,418.56338 193.63495,416.45461 193.63495,414.92088 C 193.63495,412.68959 195.31373,411.06338 197.64121,411.06338 C 198.39249,411.06338 199.15375,411.24588 200.15121,411.66205 L 200.15121,412.78586"
       style="fill:#005891;fill-opacity:1;fill-rule:nonzero;stroke:none"
       id="path73" />
    <path
       d="M 201.94374,414.81338 C 201.94374,416.79831 203.45245,418.56338 205.84869,418.56338 C 208.3313,418.56338 209.80744,416.7871 209.80744,414.81338 C 209.80744,412.77588 208.28872,411.06338 205.86998,411.06338 C 203.49502,411.06338 201.94374,412.78586 201.94374,414.81338 z M 203.02246,414.81338 C 203.02246,413.20456 204.23623,412.0246 205.86998,412.0246 C 207.51495,412.0246 208.72879,413.20456 208.72879,414.81338 C 208.72879,416.41211 207.51495,417.60338 205.86998,417.60338 C 204.23623,417.60338 203.02246,416.41211 203.02246,414.81338 M 218.61123,418.46961 L 217.71248,418.46961 L 212.82249,412.84088 L 212.82249,418.46961 L 211.83746,418.46961 L 211.83746,411.15706 L 212.6725,411.15706 L 217.62749,416.8183 L 217.62749,411.15706 L 218.61123,411.15706 L 218.61123,418.46961 M 224.44993,412.77084 C 223.82995,412.18338 223.22876,412.01209 222.73499,412.01209 C 222.05749,412.01209 221.57379,412.36465 221.57379,412.87834 C 221.57379,414.27963 224.73876,414.25834 224.73876,416.57836 C 224.73876,417.7233 223.87252,418.56208 222.69119,418.56208 C 221.89621,418.56208 221.25374,418.34709 220.64376,417.88459 L 220.64376,416.55708 C 221.17874,417.2409 221.85379,417.61589 222.5737,417.61589 C 223.38996,417.61589 223.76625,417.10211 223.76625,416.69585 C 223.76625,415.18836 220.6012,415.01708 220.6012,413.01711 C 220.6012,411.8296 221.47751,411.0646 222.81997,411.0646 C 223.37875,411.0646 223.93624,411.2371 224.44993,411.5821 L 224.44993,412.77084 M 230.78125,412.10586 L 227.68127,412.10586 L 227.68127,414.31083 L 230.67375,414.31083 L 230.67375,415.25833 L 227.68127,415.25833 L 227.68127,417.52211 L 230.87753,417.52211 L 230.87753,418.46831 L 226.62873,418.46831 L 226.62873,411.15836 L 230.78125,411.15836 L 230.78125,412.10586 M 232.75375,418.46961 L 233.80623,418.46961 L 233.80623,411.15706 L 232.75375,411.15706 L 232.75375,418.46961 z M 237.22625,417.52211 L 240.52994,417.52211 L 240.52994,418.46831 L 236.1737,418.46831 L 236.1737,411.15706 L 237.22625,411.15706 L 237.22625,417.52211 M 248.75244,412.77084 C 248.13248,412.18338 247.53128,412.01209 247.0375,412.01209 C 246.36001,412.01209 245.87753,412.36465 245.87753,412.87834 C 245.87753,414.27963 249.04129,414.25834 249.04129,416.57836 C 249.04129,417.7233 248.17505,418.56208 246.99371,418.56208 C 246.19995,418.56208 245.55618,418.34709 244.94751,417.88459 L 244.94751,416.55708 C 245.48126,417.2409 246.15624,417.61589 246.87623,417.61589 C 247.69249,417.61589 248.06869,417.10211 248.06869,416.69585 C 248.06869,415.18836 244.90494,415.01708 244.90494,413.01711 C 244.90494,411.8296 245.78125,411.0646 247.12371,411.0646 C 247.68127,411.0646 248.24005,411.2371 248.75244,411.5821 L 248.75244,412.77084 M 257.0813,415.59715 C 257.0813,417.38838 256.00754,418.56338 253.83499,418.56338 C 252.2937,418.56338 250.79125,417.69835 250.79125,415.70456 L 250.79125,411.15706 L 251.84371,411.15706 L 251.84371,415.47958 C 251.84371,416.30584 251.94993,416.64833 252.28249,416.98089 C 252.69996,417.39959 253.22494,417.60338 253.8562,417.60338 C 254.65874,417.60338 255.2375,417.34588 255.56869,417.01331 C 255.94375,416.6371 256.02875,416.10084 256.02875,415.41458 L 256.02875,411.15706 L 257.0813,411.15706 L 257.0813,415.59715 M 259.22874,411.15836 L 259.22874,418.46961 L 260.28123,418.46961 L 260.28123,415.30464 L 261.37375,415.30464 C 263.06502,415.30464 263.83378,414.40085 263.83378,413.25835 C 263.83378,412.10586 263.10745,411.15836 261.51245,411.15836 L 259.22874,411.15836 z M 260.28123,412.10586 L 261.51245,412.10586 C 262.46628,412.10586 262.75498,412.6821 262.75498,413.21586 C 262.75498,413.9408 262.2525,414.35836 261.47003,414.35836 L 260.28123,414.35836 L 260.28123,412.10586 M 269.64874,412.10586 L 266.54876,412.10586 L 266.54876,414.31083 L 269.54125,414.31083 L 269.54125,415.25833 L 266.54876,415.25833 L 266.54876,417.52211 L 269.74502,417.52211 L 269.74502,418.46831 L 265.49621,418.46831 L 265.49621,411.15836 L 269.64874,411.15836 L 269.64874,412.10586 z M 268.58628,409.09209 L 267.38495,410.67206 L 266.79496,410.67206 L 267.51373,409.09209 L 268.58628,409.09209 M 271.63376,411.15836 L 271.63376,418.46961 L 272.68624,418.46961 L 272.68624,415.29334 L 273.12744,415.29334 C 273.66622,415.29334 274.10751,415.46463 275.07493,416.96708 L 276.03623,418.46961 L 277.29126,418.46961 C 276.78619,417.77213 276.60491,417.52585 276.29371,417.02086 C 275.73624,416.10831 275.33126,415.43213 274.66751,414.99214 C 275.44754,414.67964 275.88501,414.04708 275.88501,413.20335 C 275.88501,411.94084 274.9675,411.15836 273.48251,411.15836 L 271.63376,411.15836 z M 272.68624,412.05963 L 273.36503,412.05963 C 274.38751,412.05963 274.79751,412.47589 274.80744,413.15955 C 274.81873,413.7683 274.49494,414.34585 273.36503,414.34585 L 272.68624,414.34585 L 272.68624,412.05963 M 278.84994,418.46961 L 279.90219,418.46961 L 279.90219,411.15706 L 278.84994,411.15706 L 278.84994,418.46961 z M 286.4225,412.10586 L 283.32245,412.10586 L 283.32245,414.31083 L 286.315,414.31083 L 286.315,415.25833 L 283.32245,415.25833 L 283.32245,417.52211 L 286.5187,417.52211 L 286.5187,418.46831 L 282.27005,418.46831 L 282.27005,411.15836 L 286.4225,411.15836 L 286.4225,412.10586 M 294.53369,415.59715 C 294.53369,417.38838 293.45992,418.56338 291.28624,418.56338 C 289.74502,418.56338 288.24249,417.69835 288.24249,415.70456 L 288.24249,411.15706 L 289.29496,411.15706 L 289.29496,415.47958 C 289.29496,416.30584 289.40246,416.64833 289.73374,416.98089 C 290.15121,417.39959 290.67628,417.60338 291.30752,417.60338 C 292.1112,417.60338 292.68875,417.34588 293.02124,417.01331 C 293.395,416.6371 293.48121,416.10084 293.48121,415.41458 L 293.48121,411.15706 L 294.53369,411.15706 L 294.53369,415.59715 M 296.75125,411.15836 L 296.75125,418.46961 L 297.80372,418.46961 L 297.80372,415.29334 L 298.24494,415.29334 C 298.78373,415.29334 299.22623,415.46463 300.19249,416.96708 L 301.15371,418.46961 L 302.40875,418.46961 C 301.90499,417.77213 301.72249,417.52585 301.41121,417.02086 C 300.85372,416.10831 300.44876,415.43213 299.785,414.99214 C 300.56625,414.67964 301.00373,414.04708 301.00373,413.20335 C 301.00373,411.94084 300.08499,411.15836 298.60123,411.15836 L 296.75125,411.15836 z M 297.80372,412.05963 L 298.48251,412.05963 C 299.50623,412.05963 299.91501,412.47589 299.9263,413.15955 C 299.93621,413.7683 299.6125,414.34585 298.48251,414.34585 L 297.80372,414.34585 L 297.80372,412.05963 M 307.05628,418.46831 L 309.91379,418.46831 C 312.32873,418.46831 313.79371,416.68708 313.79371,414.81338 C 313.79371,413.09081 312.60743,411.15836 309.9025,411.15836 L 307.05628,411.15836 L 307.05628,418.46831 z M 308.10875,412.10586 L 309.72991,412.10586 C 311.78124,412.10586 312.71621,413.34709 312.71621,414.81338 C 312.71621,415.71334 312.16751,417.52211 309.785,417.52211 L 308.10875,417.52211 L 308.10875,412.10586 M 319.99253,412.10586 L 316.89125,412.10586 L 316.89125,414.31083 L 319.88495,414.31083 L 319.88495,415.25833 L 316.89125,415.25833 L 316.89125,417.52211 L 320.08742,417.52211 L 320.08742,418.46831 L 315.83877,418.46831 L 315.83877,411.15836 L 319.99253,411.15836 L 319.99253,412.10586 M 326.09498,417.52211 L 329.39742,417.52211 L 329.39742,418.46831 L 325.0412,418.46831 L 325.0412,411.15706 L 326.09498,411.15706 L 326.09498,417.52211 M 330.78995,412.04711 L 330.78995,410.79459 L 331.73751,410.79459 L 331.73751,412.04711 L 331.4888,413.51333 L 331.03744,413.51333 L 330.78995,412.04711 M 336.89621,411.11083 L 336.15624,411.11083 L 333.0162,418.46961 L 334.08875,418.46961 L 335.00999,416.3121 L 338.11753,416.3121 L 339.09377,418.46961 L 340.16495,418.46961 L 336.89621,411.11083 z M 336.51001,412.71835 L 337.68875,415.3659 L 335.41626,415.3659 L 336.51001,412.71835 M 347.65748,415.59715 C 347.65748,417.38838 346.58249,418.56338 344.40994,418.56338 C 342.86873,418.56338 341.36628,417.69835 341.36628,415.70456 L 341.36628,411.15706 L 342.41868,411.15706 L 342.41868,415.47958 C 342.41868,416.30584 342.52624,416.64833 342.85751,416.98089 C 343.27499,417.39959 343.80005,417.60338 344.43123,417.60338 C 345.23376,417.60338 345.81252,417.34588 346.1438,417.01331 C 346.5187,416.6371 346.6037,416.10084 346.6037,415.41458 L 346.6037,411.15706 L 347.65748,411.15706 L 347.65748,415.59715 M 349.86251,418.46831 L 352.71874,418.46831 C 355.13504,418.46831 356.60004,416.68708 356.60004,414.81338 C 356.60004,413.09081 355.41504,411.15836 352.70753,411.15836 L 349.86251,411.15836 L 349.86251,418.46831 z M 350.91499,412.10586 L 352.53624,412.10586 C 354.58748,412.10586 355.52124,413.34709 355.52124,414.81338 C 355.52124,415.71334 354.97375,417.52211 352.59125,417.52211 L 350.91499,417.52211 L 350.91499,412.10586 M 358.65753,418.46961 L 359.70978,418.46961 L 359.70978,411.15706 L 358.65753,411.15706 L 358.65753,418.46961 z M 361.75995,414.81338 C 361.75995,416.79831 363.26751,418.56338 365.66497,418.56338 C 368.14742,418.56338 369.62371,416.7871 369.62371,414.81338 C 369.62371,412.77588 368.10379,411.06338 365.68619,411.06338 C 363.31124,411.06338 361.75995,412.78586 361.75995,414.81338 z M 362.83753,414.81338 C 362.83753,413.20456 364.05243,412.0246 365.68619,412.0246 C 367.33001,412.0246 368.54493,413.20456 368.54493,414.81338 C 368.54493,416.41211 367.33001,417.60338 365.68619,417.60338 C 364.05243,417.60338 362.83753,416.41211 362.83753,414.81338 M 373.80996,418.54088 L 373.59498,418.54088 L 370.43121,411.15706 L 371.48118,411.15706 L 373.68117,416.29706 L 375.86867,411.15706 L 376.90994,411.15706 L 373.80996,418.54088 M 378.46877,418.46961 L 379.52103,418.46961 L 379.52103,411.15706 L 378.46877,411.15706 L 378.46877,418.46961 z M 385.37246,412.77084 C 384.7525,412.18338 384.15123,412.01209 383.65753,412.01209 C 382.98004,412.01209 382.49748,412.36465 382.49748,412.87834 C 382.49748,414.27963 385.66124,414.25834 385.66124,416.57836 C 385.66124,417.7233 384.79493,418.56208 383.61374,418.56208 C 382.81998,418.56208 382.17621,418.34709 381.56746,417.88459 L 381.56746,416.55708 C 382.10129,417.2409 382.77619,417.61589 383.49625,417.61589 C 384.31244,417.61589 384.68873,417.10211 384.68873,416.69585 C 384.68873,415.18836 381.52374,415.01708 381.52374,413.01711 C 381.52374,411.8296 382.40127,411.0646 383.74374,411.0646 C 384.3013,411.0646 384.86,411.2371 385.37246,411.5821 L 385.37246,412.77084 M 393.70118,415.59715 C 393.70118,417.38838 392.62749,418.56338 390.45501,418.56338 C 388.91373,418.56338 387.41119,417.69835 387.41119,415.70456 L 387.41119,411.15706 L 388.46375,411.15706 L 388.46375,415.47958 C 388.46375,416.30584 388.56995,416.64833 388.90251,416.98089 C 389.31999,417.39959 389.84498,417.60338 390.47623,417.60338 C 391.27999,417.60338 391.85745,417.34588 392.18873,417.01331 C 392.56378,416.6371 392.64999,416.10084 392.64999,415.41458 L 392.64999,411.15706 L 393.70118,411.15706 L 393.70118,415.59715 M 400.04745,412.10586 L 396.94747,412.10586 L 396.94747,414.31083 L 399.94002,414.31083 L 399.94002,415.25833 L 396.94747,415.25833 L 396.94747,417.52211 L 400.14496,417.52211 L 400.14496,418.46831 L 395.8963,418.46831 L 395.8963,411.15836 L 400.04745,411.15836 L 400.04745,412.10586 M 403.06121,417.52211 L 406.36505,417.52211 L 406.36505,418.46831 L 402.00874,418.46831 L 402.00874,411.15706 L 403.06121,411.15706 L 403.06121,417.52211"
       style="fill:#005891;fill-opacity:1;fill-rule:nonzero;stroke:none"
       id="path75" />
  </g>
</svg>
