<?xml version="1.0" encoding="UTF-8" standalone="no"?>
<svg
   xmlns:dc="http://purl.org/dc/elements/1.1/"
   xmlns:cc="http://creativecommons.org/ns#"
   xmlns:rdf="http://www.w3.org/1999/02/22-rdf-syntax-ns#"
   xmlns:svg="http://www.w3.org/2000/svg"
   xmlns="http://www.w3.org/2000/svg"
   xmlns:sodipodi="http://sodipodi.sourceforge.net/DTD/sodipodi-0.dtd"
   xmlns:inkscape="http://www.inkscape.org/namespaces/inkscape"
   id="e6d15d18-a685-4480-ac2b-bd578043a679"
   data-name="Layer 1"
   width="1041.32"
   height="554.17"
   viewBox="0 0 1041.32 554.17"
   version="1.1"
   sodipodi:docname="undraw_programmer_imem.svg"
   inkscape:version="0.92.4 (5da689c313, 2019-01-14)">
  <metadata
     id="metadata4259">
    <rdf:RDF>
      <cc:Work
         rdf:about="">
        <dc:format>image/svg+xml</dc:format>
        <dc:type
           rdf:resource="http://purl.org/dc/dcmitype/StillImage" />
      </cc:Work>
    </rdf:RDF>
  </metadata>
  <defs
     id="defs4257" />
  <sodipodi:namedview
     pagecolor="#ffffff"
     bordercolor="#666666"
     borderopacity="1"
     objecttolerance="10"
     gridtolerance="10"
     guidetolerance="10"
     inkscape:pageopacity="0"
     inkscape:pageshadow="2"
     inkscape:window-width="1920"
     inkscape:window-height="1017"
     id="namedview4255"
     showgrid="false"
     inkscape:zoom="0.52558356"
     inkscape:cx="376.10549"
     inkscape:cy="438.7559"
     inkscape:window-x="-8"
     inkscape:window-y="-8"
     inkscape:window-maximized="1"
     inkscape:current-layer="e6d15d18-a685-4480-ac2b-bd578043a679" />
  <title
     id="title4176">programmer</title>
  <path
     d="M1040.82,611.12q-1.74,3.75-3.47,7.4-2.7,5.67-5.33,11.12c-.78,1.61-1.56,3.19-2.32,4.77-8.6,17.57-16.63,33.11-23.45,45.89A73.21,73.21,0,0,1,942.44,719l-151.65,1.65h-1.6l-13,.14-11.12.12-34.1.37-1.38,0-17.36.19h-.53l-107,1.16-95.51,1-11.11.12-69,.75H429l-44.75.48h-.48l-141.5,1.53-42.33.46a88,88,0,0,1-10.79-.54h0c-1.22-.14-2.44-.3-3.65-.49a87.38,87.38,0,0,1-51.29-27.54C116,678.37,102.75,655,93.85,629.64q-1.93-5.49-3.6-11.12C59.44,514.37,97,380,164.6,290.08q4.25-5.64,8.64-11l.07-.08c20.79-25.52,44.1-46.84,68.93-62,44-26.91,92.75-34.49,140.7-11.9,40.57,19.12,78.45,28.11,115.17,30.55,3.71.24,7.42.42,11.11.53,84.23,2.65,163.17-27.7,255.87-47.29,3.69-.78,7.39-1.55,11.12-2.28,66.13-13.16,139.49-20.1,226.73-5.51a189.09,189.09,0,0,1,26.76,6.4q5.77,1.86,11.12,4c41.64,16.94,64.35,48.24,74,87.46q1.37,5.46,2.37,11.11C1134.3,384.41,1084.19,518.23,1040.82,611.12Z"
     transform="translate(-79.34 -172.91)"
     fill="#f2f2f2"
     id="path4178"
     style="fill:#91ae4f;fill-opacity:1" />
  <polygon
     points="863.09 533.65 863.09 546.65 711.17 548.05 709.55 548.08 651.81 548.61 650.43 548.63 632.88 548.78 632.36 548.78 525.38 549.77 349.77 551.4 349.62 551.4 304.97 551.82 304.49 551.83 106.09 553.65 106.09 538.65 152.74 510.65 246.34 509.87 248.34 509.86 249 509.85 251 509.82 295.94 509.45 297.95 509.44 298.59 509.43 300.59 509.42 315 509.3 315.38 509.29 350.93 508.99 351.22 508.99 628.62 506.65 635.41 506.6 636.09 506.6 641.27 506.55 678.92 506.24 680.92 506.21 682.77 506.19 683.73 506.19 695.44 506.1 697.76 506.07 700.87 506.05 710.62 505.96 726.09 505.83 728.09 505.81 731.57 505.79 732.22 505.79 806.93 505.15 863.09 533.65"
     fill="#65617d"
     id="polygon4182"
     style="fill:#383838;fill-opacity:1" />
  <path
     d="M377.44,656.57v24.49a6.13,6.13,0,0,1-3.5,5.54,6,6,0,0,1-2.5.6l-34.9.74a6,6,0,0,1-2.7-.57,6.12,6.12,0,0,1-3.57-5.57V656.57Z"
     transform="translate(-79.34 -172.91)"
     fill="#3f3d56"
     id="path4190"
     style="fill:#2a2a2a;fill-opacity:1" />
  <rect
     x="680.92"
     y="483.65"
     width="47.17"
     height="31.5"
     fill="#3f3d56"
     id="rect4192"
     style="fill:#2a2a2a;fill-opacity:1" />
  <polygon
     points="298.09 483.65 298.09 488.62 250.92 489.88 250.92 483.65 298.09 483.65"
     opacity="0.1"
     id="polygon4198" />
  <path
     d="M460.69,485.27v168.2a4,4,0,0,1-3.85,3.95l-191.65,5.1h-.05a4,4,0,0,1-3.95-3.95V485.27a4,4,0,0,1,3.95-3.95h191.6A4,4,0,0,1,460.69,485.27Z"
     transform="translate(-79.34 -172.91)"
     fill="#65617d"
     id="path4200"
     style="fill:#cecece;fill-opacity:1" />
  <path
     d="M265.19,481.32v181.2h-.05a4,4,0,0,1-3.95-3.95V485.27a4,4,0,0,1,3.95-3.95Z"
     transform="translate(-79.34 -172.91)"
     opacity="0.1"
     id="path4202" />
  <polygon
     points="194.59 319.15 372.09 319.15 372.09 467.4 194.59 471.4 194.59 319.15"
     fill="#6c63ff"
     id="polygon4204"
     style="fill:#5770be;fill-opacity:1" />
  <polygon
     points="726.09 483.65 726.09 490.06 678.92 488.8 678.92 483.65 726.09 483.65"
     opacity="0.1"
     id="polygon4206" />
  <path
     d="M867.69,485.27v173.3a4,4,0,0,1-4,3.95h0L672,657.42a4,4,0,0,1-3.85-3.95V485.27a4,4,0,0,1,3.95-3.95h191.6A4,4,0,0,1,867.69,485.27Z"
     transform="translate(-79.34 -172.91)"
     fill="#65617d"
     id="path4208"
     style="fill:#cecece;fill-opacity:1" />
  <path
     d="M867.69,485.27v173.3a4,4,0,0,1-4,3.95h0V481.32h0A4,4,0,0,1,867.69,485.27Z"
     transform="translate(-79.34 -172.91)"
     opacity="0.1"
     id="path4210" />
  <polygon
     points="775.59 319.15 598.09 319.15 598.09 467.4 775.59 471.4 775.59 319.15"
     fill="#6c63ff"
     id="polygon4212"
     style="fill:#5770be;fill-opacity:1" />
  <path
     d="M663.19,485.27v168.2a4,4,0,0,1-3.85,3.95l-191.65,5.1h0a4,4,0,0,1-4-3.95V485.27a4,4,0,0,1,3.95-3.95h191.6A4,4,0,0,1,663.19,485.27Z"
     transform="translate(-79.34 -172.91)"
     fill="#65617d"
     id="path4214"
     style="fill:#cecece;fill-opacity:1" />
  <polygon
     points="397.09 319.15 574.59 319.15 574.59 467.4 397.09 471.4 397.09 319.15"
     fill="#6c63ff"
     id="polygon4216"
     style="fill:#5770be;fill-opacity:1" />
  <polygon
     points="863.09 533.65 863.09 546.65 711.17 548.05 709.55 548.08 651.81 548.61 650.43 548.63 632.88 548.78 632.36 548.78 525.38 549.77 349.77 551.4 349.62 551.4 304.97 551.82 304.49 551.83 106.09 553.65 106.09 538.65 308.6 537.32 309.08 537.32 350.07 537.04 350.26 537.04 633.34 535.17 633.63 535.17 633.8 535.16 634.27 535.16 639.06 535.13 640.52 535.13 715.01 534.63 719.41 534.61 720.39 534.6 863.09 533.65"
     opacity="0.1"
     id="polygon4218"
     style="fill:#2a2a2a;fill-opacity:1" />
  <path
     d="M429.08,725.44l0-.84,175.62-1.91,107-1H712v-.17l1-13.44.43-6,1.64-22.61,1.29-17.9,0-.44a10.62,10.62,0,0,0-.11-2.47.3.3,0,0,0,0-.1,10.39,10.39,0,0,0-2-4.64,10.54,10.54,0,0,0-9.42-4c-12.11,1.24-24.34,2.23-36.58,3-1.67.12-3.34.22-5,.31-78.94,4.69-157.17.89-199.5-2l-3-.22c-7.33-.52-13.46-1-18.18-1.41a10.54,10.54,0,0,0-11.24,8.53,11,11,0,0,0-.18,1.64l-.68,22.16L429.54,710l-.44,14.36v.28l0,.84Z"
     transform="translate(-79.34 -172.91)"
     fill="#3f3d56"
     id="path4228"
     style="fill:#2a2a2a;fill-opacity:1" />
  <path
     d="M716.67,664.18l-1.23,15.33-1.83,22.85-.46,5.72-1,12.81-.06.64v.17h0l-.15,1.48.11-1.48h-.29l-107,1L429.11,724.6v-.28l.49-14.36,1-28.06.64-18.65A6.36,6.36,0,0,1,434.3,658a6.25,6.25,0,0,1,3.78-.9c2.1.17,4.68.37,7.69.59,4.89.36,10.92.78,17.94,1.22,13,.82,29.31,1.7,48,2.42,52,2,122.2,2.67,188.88-3.17,3-.26,6.1-.55,9.13-.84a6.26,6.26,0,0,1,3.48.66,5.16,5.16,0,0,1,.86.54,6.14,6.14,0,0,1,2,2.46,3.56,3.56,0,0,1,.25.61A6.28,6.28,0,0,1,716.67,664.18Z"
     transform="translate(-79.34 -172.91)"
     opacity="0.1"
     id="path4230"
     style="fill:#2a2a2a;fill-opacity:1" />
  <path
     d="M377.44,677.87v3.19a6.13,6.13,0,0,1-3.5,5.54l-40.1.77a6.12,6.12,0,0,1-3.57-5.57v-3Z"
     transform="translate(-79.34 -172.91)"
     opacity="0.1"
     id="path4232" />
  <polygon
     points="300.59 515.57 248.34 516.57 248.34 507.9 300.59 506.9 300.59 515.57"
     fill="#3f3d56"
     id="polygon4238"
     style="fill:#2a2a2a;fill-opacity:1" />
  <path
     d="M758.56,679.87v3.19a6.13,6.13,0,0,0,3.5,5.54l40.1.77a6.12,6.12,0,0,0,3.57-5.57v-3Z"
     transform="translate(-79.34 -172.91)"
     opacity="0.1"
     id="path4240" />
  <polygon
     points="676.72 517.57 728.97 518.57 728.97 509.9 676.72 508.9 676.72 517.57"
     fill="#3f3d56"
     id="polygon4244"
     style="fill:#2a2a2a;fill-opacity:1" />
  <path
     d="M379.6,506.5H280a.5.5,0,0,1,0-1h99.6a.5.5,0,0,1,0,1Z"
     transform="translate(-79.34 -172.91)"
     fill="#f2f2f2"
     id="path4248" />
  <path
     d="M379.6,515.5H280a.5.5,0,0,1,0-1h99.6a.5.5,0,0,1,0,1Z"
     transform="translate(-79.34 -172.91)"
     fill="#f2f2f2"
     id="path4250" />
  <path
     d="M379.6,524.5H280a.5.5,0,0,1,0-1h99.6a.5.5,0,0,1,0,1Z"
     transform="translate(-79.34 -172.91)"
     fill="#f2f2f2"
     id="path4252" />
</svg>
